SplineFontDB: 3.2
FontName: Hebdomadal
FullName: Hebdomadal
FamilyName: Hebdomadal
Weight: Regular
Copyright: Copyright (c) 2024, Bao Nguyen (RandomMaerks) (rmforbusiness@gmail.com)
UComments: "2024-1-7: Created with FontForge (http://fontforge.org)"
Version: 1.0
ItalicAngle: 0
UnderlinePosition: -100
UnderlineWidth: 50
Ascent: 800
Descent: 200
InvalidEm: 0
LayerCount: 2
Layer: 0 0 "Back" 1
Layer: 1 0 "Fore" 0
XUID: [1021 366 1780442531 12863]
StyleMap: 0x0040
FSType: 0
OS2Version: 0
OS2_WeightWidthSlopeOnly: 0
OS2_UseTypoMetrics: 1
CreationTime: 1704641141
ModificationTime: 1724602274
PfmFamily: 17
TTFWeight: 400
TTFWidth: 5
LineGap: 90
VLineGap: 0
OS2TypoAscent: 0
OS2TypoAOffset: 1
OS2TypoDescent: 0
OS2TypoDOffset: 1
OS2TypoLinegap: 90
OS2WinAscent: 0
OS2WinAOffset: 1
OS2WinDescent: 0
OS2WinDOffset: 1
HheadAscent: 0
HheadAOffset: 1
HheadDescent: 0
HheadDOffset: 1
OS2Vendor: 'PfEd'
MarkAttachClasses: 1
DEI: 91125
LangName: 1033
Encoding: ISO8859-1
UnicodeInterp: none
NameList: AGL For New Fonts
DisplaySize: -36
AntiAlias: 1
FitToEm: 0
WinInfo: 0 51 17
BeginPrivate: 0
EndPrivate
Grid
-1000 650 m 0
 2000 650 l 1024
-1000 500 m 0
 2000 500 l 1024
EndSplineSet
BeginChars: 256 61

StartChar: A
Encoding: 65 65 0
Width: 850
Flags: W
HStem: 0 202<50 158.93 245.636 336 384 428.098 744.684 800> 260 71<276.773 387.036> 630 20G<177 579.099>
VStem: 50 286<0 202>
LayerCount: 2
Fore
SplineSet
177 650 m 1
 571 650 l 1
 737.848632812 238 l 2
 747.967773438 213.01171875 759 202 777 202 c 2
 800 202 l 1
 800 0 l 1
 384 0 l 1
 384 202 l 1
 410 202 l 2
 428 202 432.458984375 220.3671875 423.98828125 241 c 2
 416.186523438 260 l 1
 253.37109375 260 l 1
 248.756835938 246 l 2
 242.05078125 225.653320312 245 202 264.25390625 202 c 2
 336 202 l 1
 336 0 l 1
 50 0 l 5
 50 202 l 5
 124.594726562 202 l 2
 149 202 162.286132812 223.998046875 171.028320312 249 c 2
 229.76953125 417 l 2
 235.729492188 434.045898438 228 448 209.608398438 448 c 2
 177 448 l 1
 177 650 l 1
387.036132812 331 m 1
 339 448 l 1
 315.337890625 448 l 1
 276.7734375 331 l 1
 387.036132812 331 l 1
EndSplineSet
EndChar

StartChar: a
Encoding: 97 97 1
Width: 804
Flags: HW
HStem: -14 153<597.012 723.813> -14 142<170.629 362.546> 308 57<299.435 340> 447 67<301.367 374.75>
VStem: 41 271<80.6029 191.291> 392 290<139.443 213 297.995 397.094> 734 70<145.159 240>
LayerCount: 2
Fore
SplineSet
682 162 m 2x7e
 682 147.617920465 688.797795094 139 700.142345104 139 c 0
 722.857284543 139 734 162.239580963 734 240 c 1
 804 240 l 1
 804 47.7197095498 757.72042156 -14 613.541992188 -14 c 0xbe
 525.065568741 -14 462.700035568 21.1721414755 438 85 c 1
 428 85 l 1
 386.442865577 17.4696565628 323.568202459 -14 230.203381652 -14 c 0
 111.054398403 -14 41 37.4957561427 41 125.080078125 c 0
 41 205.682563478 106 265.136512696 326 280 c 0
 375.938970079 283.666847453 392 307.774759262 392 355 c 2
 392 367 l 2
 392 416.443096067 370.395734242 447 335.43860018 447 c 0
 310.653679721 447 295 433.598262286 295 412.37890625 c 0
 295 389.55577232 312.523513128 375 340 375 c 1
 340 318 l 1
 41 318 l 1
 41 455.313187283 131.227435762 514 342.338181283 514 c 0
 562.803120265 514 682 444.867162531 682 317 c 2
 682 162 l 2x7e
392 213 m 1
 356 213 l 2
 329.43795303 213 312 195.44408131 312 168.702345278 c 0
 312 144.244378476 326.776742388 128 349.024997396 128 c 0x7e
 376.06619051 128 392 152.100001259 392 193 c 2
 392 213 l 1
EndSplineSet
EndChar

StartChar: B
Encoding: 66 66 2
Width: 739
Flags: W
HStem: 0 156<456 560.672> 294 74<502 564.694> 494 156<145.161 212 506 585.318>
VStem: 38 74<392 463.765> 581 121<177.124 272.702> 597 107<405.867 530.387>
LayerCount: 2
Fore
SplineSet
38 392 m 1xf4
 112 392 l 1
 112 459 144 491 212 494 c 1
 168 156 l 1
 28 156 l 1
 28 0 l 1
 456 0 l 2
 613 0 702 68 702 190 c 0xf8
 702 268 653 329 578 345 c 1
 659 362 704 410 704 478 c 0
 704 579 622 650 506 650 c 2
 218 650 l 2
 102 650 38 558 38 392 c 1xf4
287 494 m 1
 528 494 l 2
 573 494 597 474 597 435 c 0xf4
 597 391 568 368 510 368 c 2
 271 368 l 1
 287 494 l 1
261 294 m 1
 502 294 l 2
 552 294 581 270 581 228 c 0xf8
 581 178 550 156 476 156 c 2
 243 156 l 1
 261 294 l 1
EndSplineSet
EndChar

StartChar: b
Encoding: 98 98 3
Width: 693
Flags: W
HStem: -10 156<280.389 510.382> 359 151<350.014 518.687>
VStem: 571 87.4902<197.672 314.035>
LayerCount: 2
Fore
SplineSet
408.245117188 359 m 0
 512.735643187 359 571 322.057976465 571 255.806640625 c 0
 571 186.094490484 506.414572946 146 394.120117188 146 c 0
 272.53798174 146 209.362043979 192.442192688 220 274 c 2
 226 320 l 1
 290.893711604 346.759523186 348.092868819 359 408.245117188 359 c 0
391.069335938 -10 m 0
 562.353942554 -10 658.490234375 86.8201735782 658.490234375 259.323242188 c 0
 658.490234375 414.482979506 580.383684256 510 453.505859375 510 c 0
 369.570931362 510 287.473223757 468.102988258 236 399 c 1
 269 650 l 1
 15 650 l 1
 15 494 l 1
 174 494 l 1
 143 258 l 2
 121.187782095 91.9451224103 215.551434402 -10 391.069335938 -10 c 0
EndSplineSet
EndChar

StartChar: C
Encoding: 67 67 4
Width: 636
Flags: W
HStem: 0 80<271.335 521> 142 84<307.88 521> 342 80<471 521> 424 84<301.006 391> 570 80<265.625 521>
VStem: 35 80<228.248 434.416> 181 84<268.569 390.575> 521 80<80 142 422 570>
LayerCount: 2
Fore
SplineSet
601 650 m 1
 601 342 l 1
 391 342 l 1
 391 424 l 1
 377 424 l 2
 307.982843578 424 265 388.308888815 265 331 c 0
 265 270.613006592 312.587207031 226 377 226 c 2
 601 226 l 1
 601 0 l 1
 387 0 l 2
 178.381486322 0 35 134.827477195 35 331 c 0
 35 527.034133911 170.686472926 650 387 650 c 2
 601 650 l 1
521 422 m 1
 521 570 l 1
 389 570 l 2
 221.02716805 570 115 477.516448306 115 331 c 0
 115 181.92298878 226.262545521 80 389 80 c 2
 521 80 l 1
 521 142 l 1
 375 142 l 2
 266.817318225 142 181 225.605531673 181 331 c 0
 181 435.084046847 260.919180292 508 375 508 c 2
 471 508 l 1
 471 422 l 1
 521 422 l 1
EndSplineSet
EndChar

StartChar: c
Encoding: 99 99 5
Width: 538
Flags: W
HStem: 0 80<208.438 423> 142 84<265.557 423> 247 70<373 423> 274 84<267.221 310> 420 80<206.723 423>
VStem: 35 80<166.455 336.482> 181 84<227.97 272.086> 423 80<80 142 317 420>
LayerCount: 2
Fore
SplineSet
503 500 m 1xdf
 503 247 l 1
 310 247 l 1xef
 310 274 l 1
 296 274 l 2
 276.897460938 274 265 265.172851562 265 251 c 0
 265 236.622070312 278.171875 226 296 226 c 2
 503 226 l 1
 503 0 l 1
 306 0 l 2
 145.387695312 0 35 102.241210938 35 251 c 0
 35 404.017578125 139.462890625 500 306 500 c 2
 503 500 l 1xdf
423 317 m 5
 423 420 l 1
 308 420 l 2
 189.68359375 420 115 354.603515625 115 251 c 0
 115 149.4375 193.37109375 80 308 80 c 2
 423 80 l 1
 423 142 l 1
 294 142 l 2
 230.986328125 142 181 190.216796875 181 251 c 0
 181 313.920898438 227.55078125 358 294 358 c 2
 373 358 l 1xdf
 373 317 l 5
 423 317 l 5
EndSplineSet
EndChar

StartChar: D
Encoding: 68 68 6
Width: 704
Flags: W
HStem: 0 50<84 134 144 194 204 254 264 314 324 374 384 434> 5 40<30 68 448 489 512 546> 19 12<582.2 594.8> 60 50<30 68 84 134 144 194 204 254 264 314 324 374 384 434 444 494 504 554 570 608> 120 50<144 194 204 254 264 314 504 554 564 614> 128 34<452 486 632 666> 138 14<401 416> 180 50<144 194 204 254 264 314 504 554 564 614 626 671> 198 14<461 476> 240 50<144 194 204 254 264 314 504 554 564 614 624 674> 300 50<144 194 204 254 264 314 504 554 564 614 624 674> 360 50<144 194 204 254 264 314 504 554 564 614 624 674> 420 50<144 194 204 254 264 314 504 554 564 614 626 671> 438 14<461 476> 480 50<144 194 204 254 264 314 504 554 564 614> 488 34<452 486 632 666> 498 14<401 416> 540 50<30 68 84 134 144 194 204 254 264 314 324 374 384 434 444 494 504 554 570 608> 600 50<84 134 144 194 204 254 264 314 324 374 384 434> 605 40<30 68 448 489 512 546> 619 12<582.2 594.8>
VStem: 30 38<6 44 66 104 546 584 606 644> 84 50<0 50 60 110 540 590 600 650> 144 50<0 50 60 110 120 170 180 230 240 290 300 350 360 410 420 470 480 530 540 590 600 650> 204 50<0 50 60 110 120 170 180 230 240 290 300 350 360 410 420 470 480 530 540 590 600 650> 264 50<0 50 60 110 120 170 180 230 240 290 300 350 360 410 420 470 480 530 540 590 600 650> 324 50<0 50 60 110 540 590 600 650> 384 50<0 50 60 110 540 590 600 650> 401 15<138 152 498 512> 444 50<60 110 540 590> 448 41<5 45 128 162 488 522 605 645> 461 15<198 212 438 452> 504 50<60 110 120 170 180 230 240 290 300 350 360 410 420 470 480 530 540 590> 512 34<8 42 608 642> 564 50<66 104 120 170 180 230 240 290 300 350 360 410 420 470 480 530 546 584> 582.2 12.5996<19 31 619 631> 624 50<182 228 240 290 300 350 360 410 422 468> 632 34<128 162 488 522>
LayerCount: 2
Fore
SplineSet
401 152 m 1x127047e8
 416 152 l 1
 416 138 l 1
 401 138 l 1
 401 152 l 1x127047e8
401 512 m 1x1070c7e8
 416 512 l 1
 416 498 l 1
 401 498 l 1
 401 512 l 1x1070c7e8
461 212 m 1x10f047e1
 476 212 l 1
 476 198 l 1
 461 198 l 1
 461 212 l 1x10f047e1
461 452 m 1x107447e1
 476 452 l 1
 476 438 l 1
 461 438 l 1
 461 452 l 1x107447e1
30 44 m 1
 68 44 l 1
 68 6 l 1
 30 6 l 1
 30 44 l 1
30 104 m 1
 68 104 l 1
 68 66 l 1
 30 66 l 1
 30 104 l 1
30 584 m 5
 68 584 l 5
 68 546 l 5
 30 546 l 5
 30 584 l 5
30 644 m 5
 68 644 l 5
 68 606 l 5
 30 606 l 5
 30 644 l 5
452 162 m 1x147047e0
 486 162 l 1
 486 128 l 1
 452 128 l 1
 452 162 l 1x147047e0
452 522 m 1x107147e0
 486 522 l 1
 486 488 l 1
 452 488 l 1
 452 522 l 1x107147e0
582.200195312 31 m 1x307047e010
 594.799804688 31 l 1
 594.799804688 19 l 1
 582.200195312 19 l 1
 582.200195312 31 l 1x307047e010
570 104 m 1
 608 104 l 1
 608 66 l 1
 570 66 l 1
 570 104 l 1
570 584 m 1
 608 584 l 1
 608 546 l 1
 570 546 l 1
 570 584 l 1
582.200195312 631 m 1x10704fe010
 594.799804688 631 l 1
 594.799804688 619 l 1
 582.200195312 619 l 1
 582.200195312 631 l 1x10704fe010
512 42 m 1x107047e040
 546 42 l 1
 546 8 l 1
 512 8 l 1
 512 42 l 1x107047e040
504 110 m 1x107047e080
 554 110 l 1
 554 60 l 1
 504 60 l 1
 504 110 l 1x107047e080
504 590 m 1
 554 590 l 1
 554 540 l 1
 504 540 l 1
 504 590 l 1
512 642 m 1x107047e040
 546 642 l 1
 546 608 l 1
 512 608 l 1
 512 642 l 1x107047e040
624 350 m 1x107047e008
 674 350 l 1
 674 300 l 1
 624 300 l 1
 624 350 l 1x107047e008
632 162 m 1x147047e004
 666 162 l 1
 666 128 l 1
 632 128 l 1
 632 162 l 1x147047e004
626 228 m 1
 671 228 l 1
 671 182 l 1
 626 182 l 1
 626 228 l 1
624 290 m 1x107047e008
 674 290 l 1
 674 240 l 1
 624 240 l 1
 624 290 l 1x107047e008
624 410 m 1
 674 410 l 1
 674 360 l 1
 624 360 l 1
 624 410 l 1
626 468 m 1
 671 468 l 1
 671 422 l 1
 626 422 l 1
 626 468 l 1
632 522 m 1x107147e004
 666 522 l 1
 666 488 l 1
 632 488 l 1
 632 522 l 1x107147e004
564 350 m 1x107047e020
 614 350 l 1
 614 300 l 1
 564 300 l 1
 564 350 l 1x107047e020
564 170 m 1x187047e020
 614 170 l 1
 614 120 l 1
 564 120 l 1
 564 170 l 1x187047e020
564 230 m 1x117047e020
 614 230 l 1
 614 180 l 1
 564 180 l 1
 564 230 l 1x117047e020
564 290 m 1
 614 290 l 1
 614 240 l 1
 564 240 l 1
 564 290 l 1
564 410 m 1
 614 410 l 1
 614 360 l 1
 564 360 l 1
 564 410 l 1
564 470 m 1x107847e020
 614 470 l 1
 614 420 l 1
 564 420 l 1
 564 470 l 1x107847e020
564 530 m 1x107247e020
 614 530 l 1
 614 480 l 1
 564 480 l 1
 564 530 l 1x107247e020
504 350 m 1x107047e080
 554 350 l 1
 554 300 l 1
 504 300 l 1
 504 350 l 1x107047e080
504 170 m 1x187047e080
 554 170 l 1
 554 120 l 1
 504 120 l 1
 504 170 l 1x187047e080
504 230 m 1x117047e080
 554 230 l 1
 554 180 l 1
 504 180 l 1
 504 230 l 1x117047e080
504 290 m 1
 554 290 l 1
 554 240 l 1
 504 240 l 1
 504 290 l 1
504 410 m 1
 554 410 l 1
 554 360 l 1
 504 360 l 1
 504 410 l 1
504 470 m 1x107847e080
 554 470 l 1
 554 420 l 1
 504 420 l 1
 504 470 l 1x107847e080
504 530 m 1x107247e080
 554 530 l 1
 554 480 l 1
 504 480 l 1
 504 530 l 1x107247e080
448 45 m 1x507047e2
 489 45 l 1
 489 5 l 1
 448 5 l 1
 448 45 l 1x507047e2
444 110 m 1x107047e4
 494 110 l 1
 494 60 l 1
 444 60 l 1
 444 110 l 1x107047e4
444 590 m 1
 494 590 l 1
 494 540 l 1
 444 540 l 1
 444 590 l 1
448 645 m 1x107057e2
 489 645 l 1
 489 605 l 1
 448 605 l 1
 448 645 l 1x107057e2
384 50 m 1x907047f0
 434 50 l 1
 434 0 l 1
 384 0 l 1
 384 50 l 1x907047f0
384 110 m 1
 434 110 l 1
 434 60 l 1
 384 60 l 1
 384 110 l 1
384 590 m 1
 434 590 l 1
 434 540 l 1
 384 540 l 1
 384 590 l 1
384 650 m 1x107067f0
 434 650 l 1
 434 600 l 1
 384 600 l 1
 384 650 l 1x107067f0
324 50 m 1x907047e0
 374 50 l 1
 374 0 l 1
 324 0 l 1
 324 50 l 1x907047e0
324 110 m 1
 374 110 l 1
 374 60 l 1
 324 60 l 1
 324 110 l 1
324 590 m 1
 374 590 l 1
 374 540 l 1
 324 540 l 1
 324 590 l 1
324 650 m 1x107067e0
 374 650 l 1
 374 600 l 1
 324 600 l 1
 324 650 l 1x107067e0
84 50 m 1x907047e0
 134 50 l 1
 134 0 l 1
 84 0 l 1
 84 50 l 1x907047e0
84 110 m 1
 134 110 l 1
 134 60 l 1
 84 60 l 1
 84 110 l 1
84 590 m 5
 134 590 l 5
 134 540 l 5
 84 540 l 5
 84 590 l 5
84 650 m 5x107067e0
 134 650 l 5
 134 600 l 5
 84 600 l 5
 84 650 l 5x107067e0
264 350 m 1
 314 350 l 1
 314 300 l 1
 264 300 l 1
 264 350 l 1
264 50 m 1x907047e0
 314 50 l 1
 314 0 l 1
 264 0 l 1
 264 50 l 1x907047e0
264 110 m 1
 314 110 l 1
 314 60 l 1
 264 60 l 1
 264 110 l 1
264 170 m 1x187047e0
 314 170 l 1
 314 120 l 1
 264 120 l 1
 264 170 l 1x187047e0
264 230 m 1x117047e0
 314 230 l 1
 314 180 l 1
 264 180 l 1
 264 230 l 1x117047e0
264 290 m 1
 314 290 l 1
 314 240 l 1
 264 240 l 1
 264 290 l 1
264 410 m 1
 314 410 l 1
 314 360 l 1
 264 360 l 1
 264 410 l 1
264 470 m 1x107847e0
 314 470 l 1
 314 420 l 1
 264 420 l 1
 264 470 l 1x107847e0
264 530 m 1x107247e0
 314 530 l 1
 314 480 l 1
 264 480 l 1
 264 530 l 1x107247e0
264 590 m 1
 314 590 l 1
 314 540 l 1
 264 540 l 1
 264 590 l 1
264 650 m 1x107067e0
 314 650 l 1
 314 600 l 1
 264 600 l 1
 264 650 l 1x107067e0
204 350 m 1
 254 350 l 1
 254 300 l 1
 204 300 l 1
 204 350 l 1
204 50 m 1x907047e0
 254 50 l 1
 254 0 l 1
 204 0 l 1
 204 50 l 1x907047e0
204 110 m 1
 254 110 l 1
 254 60 l 1
 204 60 l 1
 204 110 l 1
204 170 m 1x187047e0
 254 170 l 1
 254 120 l 1
 204 120 l 1
 204 170 l 1x187047e0
204 230 m 1x117047e0
 254 230 l 1
 254 180 l 1
 204 180 l 1
 204 230 l 1x117047e0
204 290 m 1
 254 290 l 1
 254 240 l 1
 204 240 l 1
 204 290 l 1
204 410 m 1
 254 410 l 1
 254 360 l 1
 204 360 l 1
 204 410 l 1
204 470 m 1x107847e0
 254 470 l 1
 254 420 l 1
 204 420 l 1
 204 470 l 1x107847e0
204 530 m 1x107247e0
 254 530 l 1
 254 480 l 1
 204 480 l 1
 204 530 l 1x107247e0
204 590 m 1
 254 590 l 1
 254 540 l 1
 204 540 l 1
 204 590 l 1
204 650 m 1x107067e0
 254 650 l 1
 254 600 l 1
 204 600 l 1
 204 650 l 1x107067e0
144 350 m 1
 194 350 l 1
 194 300 l 1
 144 300 l 1
 144 350 l 1
144 50 m 1x907047e0
 194 50 l 1
 194 0 l 1
 144 0 l 1
 144 50 l 1x907047e0
144 110 m 1
 194 110 l 1
 194 60 l 1
 144 60 l 1
 144 110 l 1
144 170 m 1x187047e0
 194 170 l 1
 194 120 l 1
 144 120 l 1
 144 170 l 1x187047e0
144 230 m 1x117047e0
 194 230 l 1
 194 180 l 1
 144 180 l 1
 144 230 l 1x117047e0
144 290 m 1
 194 290 l 1
 194 240 l 1
 144 240 l 1
 144 290 l 1
144 410 m 1
 194 410 l 1
 194 360 l 1
 144 360 l 1
 144 410 l 1
144 470 m 1x107847e0
 194 470 l 1
 194 420 l 1
 144 420 l 1
 144 470 l 1x107847e0
144 530 m 1x107247e0
 194 530 l 1
 194 480 l 1
 144 480 l 1
 144 530 l 1x107247e0
144 590 m 1
 194 590 l 1
 194 540 l 1
 144 540 l 1
 144 590 l 1
144 650 m 1x107067e0
 194 650 l 1
 194 600 l 1
 144 600 l 1
 144 650 l 1x107067e0
EndSplineSet
EndChar

StartChar: d
Encoding: 100 100 7
Width: 704
Flags: W
HStem: 8 34<158 192 215 256 340 370> 19 12<109.2 121.8> 60 50<96 134 150 200 210 260 270 320 330 380 450 500 510 560 570 620 636 674> 70 30<400 430> 120 50<90 140 150 200 390 440 450 500 510 560> 126.3 37.4004<36.2998 73.7002 218 252> 138 14<288 303> 180 50<30 80 90 140 150 200 390 440 450 500 510 560> 198 14<228 243> 240 50<30 80 90 140 150 200 390 440 450 500 510 560> 258 14<228 243> 300 50<90 140 150 200 390 440 450 500 510 560> 306.3 37.4004<36.2998 73.7002 218 252> 318 14<288 303> 360 50<96 134 150 200 210 260 270 320 330 380 390 440 450 500 510 560> 420 50<270 320 330 380 390 440 450 500 510 560> 428 34<158 192 215 256> 439 12<109.2 121.8> 480 50<390 440 450 500 510 560> 540 50<276 314 332.5 377.5 394.75 435.25 450 500 510 560> 600 50<276 314 330 380 390 440 450 500 510 560>
VStem: 30 50<126.3 163.7 180 230 240 290 306.3 343.7> 90 50<66 104 120 170 180 230 240 290 300 350 366 404> 109.2 12.5996<19 31 439 451> 150 50<60 110 120 170 180 230 240 290 300 350 360 410> 158 34<8 42 428 462> 210 50<60 110 360 410> 215 41<5 45 128 162 308 342 425 465> 228 15<198 212 258 272> 270 50<2.5 47.5 60 110 360 410 420 470 546 584 606 644> 288 15<138 152 318 332> 330 50<60 110 360 410 420 470 542.5 587.5 600 650> 340 30<10 40> 390 50<120 170 180 230 240 290 300 350 360 410 420 470 480 530 544.75 585.25 600 650> 400 30<70 100> 450 50<2.5 47.5 60 110 120 170 180 230 240 290 300 350 360 410 420 470 480 530 540 590 600 650> 510 50<0 50 60 110 120 170 180 230 240 290 300 350 360 410 420 470 480 530 540 590 600 650> 570 50<0 50 60 110> 630 50<0 50 66 104>
LayerCount: 2
Fore
SplineSet
80 230 m 1x01023c001e
 80 180 l 1
 30 180 l 1
 30 230 l 1
 80 230 l 1x01023c001e
80 290 m 1x00423c001e
 80 240 l 1
 30 240 l 1
 30 290 l 1
 80 290 l 1x00423c001e
276 584 m 1
 314 584 l 1
 314 546 l 1
 276 546 l 1
 276 584 l 1
276 644 m 1
 314 644 l 1
 314 606 l 1
 276 606 l 1
 276 644 l 1
332.5 587.5 m 1
 377.5 587.5 l 1
 377.5 542.5 l 1
 332.5 542.5 l 1
 332.5 587.5 l 1
330 650 m 1x00023c011e
 380 650 l 1
 380 600 l 1
 330 600 l 1
 330 650 l 1x00023c011e
440 530 m 1x00023c005e
 440 480 l 1
 390 480 l 1
 390 530 l 1
 440 530 l 1x00023c005e
435.25 585.25 m 1
 435.25 544.75 l 1
 394.75 544.75 l 1
 394.75 585.25 l 1
 435.25 585.25 l 1
440 650 m 1
 440 600 l 1
 390 600 l 1
 390 650 l 1
 440 650 l 1
500 530 m 1
 500 480 l 1
 450 480 l 1
 450 530 l 1
 500 530 l 1
500 590 m 1
 500 540 l 1
 450 540 l 1
 450 590 l 1
 500 590 l 1
500 650 m 1
 500 600 l 1
 450 600 l 1
 450 650 l 1
 500 650 l 1
560 530 m 1
 560 480 l 1
 510 480 l 1
 510 530 l 1
 560 530 l 1
560 590 m 1
 560 540 l 1
 510 540 l 1
 510 590 l 1
 560 590 l 1
560 650 m 1
 560 600 l 1
 510 600 l 1
 510 650 l 1
 560 650 l 1
680 50 m 1
 680 0 l 1
 630 0 l 1
 630 50 l 1
 680 50 l 1
303 152 m 1x02023c021e
 303 138 l 1
 288 138 l 1
 288 152 l 1
 303 152 l 1x02023c021e
303 332 m 1x00063c021e
 303 318 l 1
 288 318 l 1
 288 332 l 1
 303 332 l 1x00063c021e
243 212 m 1x00823c081e
 243 198 l 1
 228 198 l 1
 228 212 l 1
 243 212 l 1x00823c081e
243 272 m 1x00223c081e
 243 258 l 1
 228 258 l 1
 228 272 l 1
 243 272 l 1x00223c081e
674 104 m 1
 674 66 l 1
 636 66 l 1
 636 104 l 1
 674 104 l 1
252 162 m 1
 252 128 l 1
 218 128 l 1
 218 162 l 1
 252 162 l 1
252 342 m 1
 252 308 l 1
 218 308 l 1
 218 342 l 1
 252 342 l 1
121.799804688 31 m 1x40023d001e
 121.799804688 19 l 1
 109.200195312 19 l 1
 109.200195312 31 l 1
 121.799804688 31 l 1x40023d001e
134 104 m 1
 134 66 l 1
 96 66 l 1
 96 104 l 1
 134 104 l 1
134 404 m 1
 134 366 l 1
 96 366 l 1
 96 404 l 1
 134 404 l 1
121.799804688 451 m 1x00027d001e
 121.799804688 439 l 1
 109.200195312 439 l 1
 109.200195312 451 l 1
 121.799804688 451 l 1x00027d001e
192 42 m 1x80023c401e
 192 8 l 1
 158 8 l 1
 158 42 l 1
 192 42 l 1x80023c401e
200 110 m 1x20023c801e
 200 60 l 1
 150 60 l 1
 150 110 l 1
 200 110 l 1x20023c801e
200 410 m 1
 200 360 l 1
 150 360 l 1
 150 410 l 1
 200 410 l 1
192 462 m 1x0002bc401e
 192 428 l 1
 158 428 l 1
 158 462 l 1
 192 462 l 1x0002bc401e
73.7001953125 163.700195312 m 1x04023c001e
 73.7001953125 126.299804688 l 1
 36.2998046875 126.299804688 l 1
 36.2998046875 163.700195312 l 1
 73.7001953125 163.700195312 l 1x04023c001e
73.7001953125 343.700195312 m 1x000a3c001e
 73.7001953125 306.299804688 l 1
 36.2998046875 306.299804688 l 1
 36.2998046875 343.700195312 l 1
 73.7001953125 343.700195312 l 1x000a3c001e
140 170 m 1x08023e001e
 140 120 l 1
 90 120 l 1
 90 170 l 1
 140 170 l 1x08023e001e
140 230 m 1x01023e001e
 140 180 l 1
 90 180 l 1
 90 230 l 1
 140 230 l 1x01023e001e
140 290 m 1x00423e001e
 140 240 l 1
 90 240 l 1
 90 290 l 1
 140 290 l 1x00423e001e
140 350 m 1x00123e001e
 140 300 l 1
 90 300 l 1
 90 350 l 1
 140 350 l 1x00123e001e
200 170 m 1x08023c801e
 200 120 l 1
 150 120 l 1
 150 170 l 1
 200 170 l 1x08023c801e
200 230 m 1x01023c801e
 200 180 l 1
 150 180 l 1
 150 230 l 1
 200 230 l 1x01023c801e
200 290 m 1x00423c801e
 200 240 l 1
 150 240 l 1
 150 290 l 1
 200 290 l 1x00423c801e
200 350 m 1x00123c801e
 200 300 l 1
 150 300 l 1
 150 350 l 1
 200 350 l 1x00123c801e
256 45 m 1x00023c101e
 256 5 l 1
 215 5 l 1
 215 45 l 1
 256 45 l 1x00023c101e
260 110 m 1x20023c201e
 260 60 l 1
 210 60 l 1
 210 110 l 1
 260 110 l 1x20023c201e
260 410 m 1
 260 360 l 1
 210 360 l 1
 210 410 l 1
 260 410 l 1
256 465 m 1x00023c101e
 256 425 l 1
 215 425 l 1
 215 465 l 1
 256 465 l 1x00023c101e
317.5 47.5 m 1
 317.5 2.5 l 1
 272.5 2.5 l 1
 272.5 47.5 l 1
 317.5 47.5 l 1
320 110 m 1x20023c041e
 320 60 l 1
 270 60 l 1
 270 110 l 1
 320 110 l 1x20023c041e
320 410 m 1
 320 360 l 1
 270 360 l 1
 270 410 l 1
 320 410 l 1
320 470 m 1x00033c041e
 320 420 l 1
 270 420 l 1
 270 470 l 1
 320 470 l 1x00033c041e
370 40 m 1x00023c009e
 370 10 l 1
 340 10 l 1
 340 40 l 1
 370 40 l 1x00023c009e
380 110 m 1x20023c011e
 380 60 l 1
 330 60 l 1
 330 110 l 1
 380 110 l 1x20023c011e
380 410 m 1
 380 360 l 1
 330 360 l 1
 330 410 l 1
 380 410 l 1
380 470 m 1x00033c011e
 380 420 l 1
 330 420 l 1
 330 470 l 1
 380 470 l 1x00033c011e
620 50 m 1
 620 0 l 1
 570 0 l 1
 570 50 l 1
 620 50 l 1
620 110 m 1x20023c001e
 620 60 l 1
 570 60 l 1
 570 110 l 1
 620 110 l 1x20023c001e
430 100 m 1x10023c003e
 430 70 l 1
 400 70 l 1
 400 100 l 1
 430 100 l 1x10023c003e
440 170 m 1x08023c005e
 440 120 l 1
 390 120 l 1
 390 170 l 1
 440 170 l 1x08023c005e
440 230 m 1x01023c005e
 440 180 l 1
 390 180 l 1
 390 230 l 1
 440 230 l 1x01023c005e
440 290 m 1x00423c005e
 440 240 l 1
 390 240 l 1
 390 290 l 1
 440 290 l 1x00423c005e
440 350 m 1x00123c005e
 440 300 l 1
 390 300 l 1
 390 350 l 1
 440 350 l 1x00123c005e
440 410 m 1
 440 360 l 1
 390 360 l 1
 390 410 l 1
 440 410 l 1
440 470 m 1x00033c005e
 440 420 l 1
 390 420 l 1
 390 470 l 1
 440 470 l 1x00033c005e
497.5 47.5 m 1
 497.5 2.5 l 1
 452.5 2.5 l 1
 452.5 47.5 l 1
 497.5 47.5 l 1
500 110 m 1x20023c001e
 500 60 l 1
 450 60 l 1
 450 110 l 1
 500 110 l 1x20023c001e
500 170 m 1x08023c001e
 500 120 l 1
 450 120 l 1
 450 170 l 1
 500 170 l 1x08023c001e
500 230 m 1x01023c001e
 500 180 l 1
 450 180 l 1
 450 230 l 1
 500 230 l 1x01023c001e
500 290 m 1x00423c001e
 500 240 l 1
 450 240 l 1
 450 290 l 1
 500 290 l 1x00423c001e
500 350 m 1x00123c001e
 500 300 l 1
 450 300 l 1
 450 350 l 1
 500 350 l 1x00123c001e
500 410 m 1
 500 360 l 1
 450 360 l 1
 450 410 l 1
 500 410 l 1
500 470 m 1x00033c001e
 500 420 l 1
 450 420 l 1
 450 470 l 1
 500 470 l 1x00033c001e
560 50 m 1
 560 0 l 1
 510 0 l 1
 510 50 l 1
 560 50 l 1
560 110 m 1x20023c001e
 560 60 l 1
 510 60 l 1
 510 110 l 1
 560 110 l 1x20023c001e
560 170 m 1x08023c001e
 560 120 l 1
 510 120 l 1
 510 170 l 1
 560 170 l 1x08023c001e
560 230 m 1x01023c001e
 560 180 l 1
 510 180 l 1
 510 230 l 1
 560 230 l 1x01023c001e
560 290 m 1x00423c001e
 560 240 l 1
 510 240 l 1
 510 290 l 1
 560 290 l 1x00423c001e
560 350 m 1x00123c001e
 560 300 l 1
 510 300 l 1
 510 350 l 1
 560 350 l 1x00123c001e
560 410 m 1
 560 360 l 1
 510 360 l 1
 510 410 l 1
 560 410 l 1
560 470 m 1x00033c001e
 560 420 l 1
 510 420 l 1
 510 470 l 1
 560 470 l 1x00033c001e
EndSplineSet
EndChar

StartChar: E
Encoding: 69 69 8
Width: 668
Flags: W
HStem: 0 12<20 76.5103 279.003 408.581 648.316 663> 346 14<257 341.548> 638 12<20 76.5103 277.642 420.524 629.239 643>
VStem: 117 140<28.8025 346 360 621.198> 445 11<151 209.196> 471 11<503.196 528> 573 11<250.894 292 418 424.706>
LayerCount: 2
Fore
SplineSet
351 12 m 0
 500.774443069 12 553 103.095703125 573 292 c 1
 584 292 l 1
 584 108.983398438 607.881835938 24.3408203125 663 12 c 1
 663 0 l 1
 20 0 l 1
 20 12 l 1
 101.621911725 12 117 28.8046875 117 118 c 2
 117 532 l 2
 117 621.1953125 101.621911725 638 20 638 c 1
 20 650 l 1
 643 650 l 1
 643 638 l 1
 598.181640625 625.80546875 580 562.313769531 580 418 c 1
 569 418 l 1
 549 573.7015625 504.993527207 638 350 638 c 0
 318.067733374 638 282.129281851 634.135742188 257 628 c 1
 257 360 l 1
 301 360 l 2
 382.516646462 360 448.967627514 388.934570312 471 528 c 1
 482 528 l 1
 460.682617188 403.580078125 456 363.53515625 456 262 c 2
 456 151 l 1
 445 151 l 1
 444.493559967 287.049804688 374.961254222 346 301 346 c 2
 257 346 l 1
 257 22 l 1
 284.006173862 16.0419921875 322.003078655 12 351 12 c 0
EndSplineSet
EndChar

StartChar: e
Encoding: 101 101 9
Width: 488
Flags: W
HStem: -12 110<239.554 347.627> 314 12<150.382 259.421 381.747 463> 497 17<202.178 312.862>
VStem: 30 120<202.759 314 326 367.171> 304 123<344.718 456.098> 456 12<201.887 251>
LayerCount: 2
Fore
SplineSet
150.061710238 326 m 1
 221 326 l 2
 276.761149484 326 304 352.331551173 304 406.235351562 c 0
 304 460.44561385 275.649043762 497 233.604492188 497 c 0
 179.272317366 497 150 440.006891178 150 334.222319584 c 0
 150 331.459651952 150.020600612 328.718836011 150.061710238 326 c 1
456 252 m 1
 468 251 l 1
 468 95.9204935728 382.238086857 -12 259 -12 c 0
 123.930497625 -12 30 95.9645074315 30 251.214534438 c 0
 30 407.580303832 125.084027074 514 264.793945312 514 c 0
 360.219653581 514 427 464.242110592 427 393.140625 c 0
 427 361.444373746 412.264696131 339.37121782 381.746533488 326 c 1
 463 326 l 1
 463 314 l 1
 150.381518143 314 l 1
 155.686011595 176.013759897 216.098578134 98 318.732421875 98 c 0
 409.578419496 98 454.156980735 148.012526808 456 252 c 1
EndSplineSet
EndChar

StartChar: F
Encoding: 70 70 10
Width: 606
Flags: W
LayerCount: 2
Fore
SplineSet
33 381 m 1
 112 635 l 1
 573 635 l 1
 614 693 l 1
 650 693 l 1
 601 522 l 1
 285 522 l 1
 239 361 l 1
 238 361 l 1
 264 336 l 1
 442 336 l 1
 493 411 l 1
 529 411 l 1
 467 173 l 1
 426 173 l 1
 427 238 l 1
 402 263 l 1
 211 263 l 1
 138 10 l 1
 98 10 l 1
 242 497 l 1
 222 522 l 1
 151 522 l 1
 63 381 l 1
 33 381 l 1
40 346 m 1
 98 346 l 1
 186 487 l 1
 225 487 l 1
 81 0 l 1
 106 -25 l 1
 173 -25 l 1
 246 228 l 1
 411 228 l 1
 410 163 l 1
 435 138 l 1
 502 138 l 1
 571 401 l 1
 546 426 l 1
 483 426 l 1
 432 351 l 1
 281 351 l 1
 320 487 l 1
 636 487 l 1
 692 683 l 1
 667 708 l 1
 604 708 l 1
 563 650 l 1
 102 650 l 1
 15 371 l 1
 40 346 l 1
EndSplineSet
EndChar

StartChar: f
Encoding: 102 102 11
Width: 415
Flags: W
LayerCount: 2
Fore
SplineSet
199 650 m 1
 153 500 l 1
 52 500 l 1
 20 362 l 1
 45 337 l 1
 103 337 l 1
 -31 -102 l 1
 -71 -102 l 1
 -70 -45 l 1
 -95 -20 l 1
 -131 -20 l 1
 -185 -200 l 1
 -160 -225 l 1
 32 -225 l 1
 202 337 l 1
 388 337 l 1
 429 475 l 1
 404 500 l 1
 251 500 l 1
 259 527 l 1
 439 527 l 1
 494 700 l 1
 469 725 l 1
 406 725 l 1
 355 650 l 1
 199 650 l 1
36 372 m 1
 62 485 l 1
 163 485 l 1
 209 635 l 1
 365 635 l 1
 416 710 l 1
 451 710 l 1
 404 562 l 1
 224 562 l 1
 208 510 l 1
 233 485 l 1
 387 485 l 1
 353 372 l 1
 167 372 l 1
 -3 -190 l 1
 -167 -190 l 1
 -121 -35 l 1
 -106 -35 l 1
 -107 -92 l 1
 -82 -117 l 1
 -21 -117 l 1
 121 347 l 1
 101 372 l 1
 36 372 l 1
EndSplineSet
EndChar

StartChar: G
Encoding: 71 71 12
Width: 741
Flags: W
HStem: -11 82<225.29 395.064> 263 80<304 524> 579 80<311.673 517.756>
VStem: 30 82<185.993 377.851> 530 93<-84 170>
LayerCount: 2
Fore
SplineSet
734 248 m 1
 620 257 l 1
 623 -84 l 1
 530 -118 l 1
 535 170 l 1
 486.271653543 34.7798742138 388.578740157 -11 282 -11 c 0
 127.386454183 -11 30 89 30 248 c 0
 30 469 215 659 430 659 c 0
 509 659 583 635.921348315 686 580 c 1
 645 504 l 1
 543 556.941176471 462 579 377 579 c 0
 208 579 112 473.686567164 112 291 c 0
 112 150.75 205.646511628 71 315 71 c 0
 419.292049632 71 484 119 531 258 c 1
 292 263 l 1
 304 343 l 1
 744 329 l 1
 734 248 l 1
EndSplineSet
EndChar

StartChar: g
Encoding: 103 103 13
Width: 635
Flags: W
HStem: -164 92<237.442 581.441> 429 82<193.419 300.577>
VStem: 30 82<218.989 344.89> 360 82<211.469 366.135> 541 79<218.351 364.103>
LayerCount: 2
Fore
SplineSet
371 123 m 1
 484 130 541 176 541 260 c 0
 541 315 517 387 473 462 c 1
 558 503 l 1
 597 438.024390244 620 369.43902439 620 318 c 0
 620 171.578544061 489 47.7662835249 323 37 c 1
 276 -38 256 -67 232 -95 c 1
 284 -80 346 -72 411 -72 c 0
 492 -72 583 -85 633 -103 c 1
 619 -194 l 1
 527 -172 445 -164 331 -164 c 0
 249.992565056 -164 220.535315985 -168 48 -200 c 1
 30 -124 l 1
 96 -103 l 1
 166.582822086 -65 219.791411043 -22 273 38 c 1
 127 52 30 137 30 250 c 0
 30 380 156 511 282 511 c 0
 378 511 442 435 442 321 c 0
 442 255 420 194 371 123 c 1
323 125 m 1
 348 163 360 207 360 262 c 0
 360 370 313 429 227 429 c 0
 153 429 112 385 112 307 c 0
 112 200 189 133 323 125 c 1
EndSplineSet
EndChar

StartChar: H
Encoding: 72 72 14
Width: 760
Flags: W
HStem: -14 136<161.218 257.981> 0 156<643.163 757> 494 156<78 225.299>
VStem: 10 142<86.1075 211.995> 302 84<175.872 417.715>
LayerCount: 2
Fore
SplineSet
78 650 m 1xb8
 140 650 l 2
 326.63410457 650 386 579.59642191 386 358.262124498 c 0
 386 111.536432712 312.17699867 -14 167.087396559 -14 c 0xb8
 70.0094590508 -14 10 42.0858331868 10 132.816479577 c 0
 10 384 511.874236634 307.568204944 537 516 c 6
 553 650 l 5
 659 650 l 5
 623 258 l 6
 616.284481379 184.8754639 643.461388578 156 719 156 c 6
 767 156 l 5
 757 0 l 5
 721 0 l 6x78
 552.554340077 0 484.336752507 95.7669979341 513 292 c 6
 526 381 l 5
 433.920972644 260 152 273.005245014 152 170.664983986 c 0
 152 140.743190237 173.35093945 122 207.435766978 122 c 0
 268.956201978 122 302 183.505539517 302 298.015607138 c 0
 302 440.568417736 250.745217315 494 114 494 c 2
 64 494 l 1
 78 650 l 1xb8
EndSplineSet
EndChar

StartChar: h
Encoding: 104 104 15
Width: 595
Flags: W
HStem: 0 156<460.391 585> 360 148<334.524 466.292> 494 156<-22 90.5196>
VStem: 302 283<34.7103 152.835> 420 40<182.614 313.401>
LayerCount: 2
Fore
SplineSet
200 208 m 2xc8
 188 0 l 1
 72 0 l 1
 96 436 l 2
 98.6748321878 479.020217688 85 494 44 494 c 2
 -36 494 l 1
 -22 650 l 1
 70 650 l 2xa8
 184 650 224.495962916 596.969679123 216 458 c 2
 210.407226562 356.5234375 l 1
 269.860926899 458.251185349 339.197520646 508 423.663799509 508 c 0
 508.920836525 508 562 457.31534622 562 379.861289537 c 0
 562 272.491470781 460 228.546650277 460 182.61447387 c 0xc8
 460 165.000288287 475 156 499 156 c 2
 585 156 l 1
 585 0 l 1
 456 0 l 2
 347.137931034 0 302 34.0001270026 302 88.0078125 c 4xd0
 302 173.01729762 420 242.845922859 420 313.401367188 c 0
 420 342.29644653 395.839272131 360 354.683569463 360 c 0
 282.456139021 360 205.315194842 283.977884261 200 208 c 2xc8
EndSplineSet
EndChar

StartChar: I
Encoding: 73 73 16
Width: 570
Flags: W
HStem: 0 310<15 175 395 555> 0 140<175 255 315 395> 340 310<15 175 395 555> 510 140<175 255 315 395>
VStem: 15 160<140 310 340 510> 205 160<170 480> 255 60<140 170 480 510> 395 160<140 310 340 510>
LayerCount: 2
Fore
SplineSet
15 650 m 1x2b
 555 650 l 1
 555 340 l 1
 395 340 l 1x2b
 395 510 l 1
 315 510 l 1
 315 480 l 1x1b
 365 480 l 1
 365 170 l 1x1d
 315 170 l 1
 315 140 l 1
 395 140 l 1x5b
 395 310 l 1
 555 310 l 1
 555 0 l 1
 15 0 l 1
 15 310 l 1
 175 310 l 1x8b
 175 140 l 1
 255 140 l 1
 255 170 l 1x4b
 205 170 l 1
 205 480 l 1x4d
 255 480 l 1
 255 510 l 1
 175 510 l 1x5b
 175 340 l 1
 15 340 l 1
 15 650 l 1x2b
EndSplineSet
EndChar

StartChar: i
Encoding: 105 105 17
Width: 383
Flags: W
HStem: 0 300<15 115 204 364> 330 140<15 115 175 364> 500 150<15 368>
VStem: 15 160<140 300> 115 60<300 330> 204 160<140 300>
LayerCount: 2
Fore
SplineSet
15 650 m 1xf4
 368 650 l 1
 368 500 l 1
 15 500 l 1
 15 650 l 1xf4
364 330 m 1
 175 330 l 1xec
 175 140 l 1
 204 140 l 1
 204 300 l 1
 364 300 l 1
 364 0 l 1
 15 0 l 1
 15 300 l 1xf4
 115 300 l 1
 115 330 l 1xec
 15 330 l 1
 15 470 l 1
 364 470 l 1
 364 330 l 1
EndSplineSet
EndChar

StartChar: J
Encoding: 74 74 18
Width: 470
Flags: W
HStem: -3 128<144.462 336.574> 494 75<153.59 285.101> 600 50<50 73.5334>
VStem: 20 19<245.093 272.105> 419 21<246.331 374.724 504 521>
LayerCount: 2
Fore
SplineSet
28 650 m 5
 64 650 l 5
 88.4986305093 589.700777977 119.217883194 569 184.201253798 569 c 4
 251.303556052 569 303.356987355 590.756218852 378 650 c 5
 440 650 l 5
 440 431 l 2
 440 102.814488148 391.945328406 -3 242.902912097 -3 c 0
 109.396756999 -3 40.3262133818 81.9039107342 20 271 c 1
 39 274 l 1
 58.2394944572 171.478530564 117.850890625 125 230.101093801 125 c 0
 355.453190291 125 416 182.496542293 416 301.533567564 c 0
 416 371.854357729 394.716397055 448.993679197 364 490 c 1
 419 504 l 1
 419 521 l 1
 359.93758563 503.097536303 307.157231506 494 262.356540293 494 c 0
 169.54188894 494 96.3823070612 533.09584059 64 600 c 5
 50 600 l 5
 181 361 l 1
 54 321 l 1
 28 650 l 5
EndSplineSet
EndChar

StartChar: j
Encoding: 106 106 19
Width: 234
Flags: W
HStem: 437 63<9 40.85> 512 138<39.774 194.226>
VStem: 19 196<533.608 630.736> 191 24<23.7641 110.3>
LayerCount: 2
Fore
SplineSet
19 582.360351562 m 0xe0
 19 627.013984204 52.3033893593 650 117 650 c 0
 181.696610641 650 215 627.013984204 215 582.360351562 c 0
 215 536.843931067 180.396630481 512 117 512 c 0
 53.6033695186 512 19 536.843931067 19 582.360351562 c 0xe0
9 500 m 9
 9 437 l 25
 191 477 l 25
 191 462 l 25
 66 432 l 17
 66 323 l 1
 146.197683769 190.584539147 192 111.106394136 192 50.3310546875 c 0
 192 8.9268179465 158.877360123 -1.54455544353 -2 -11 c 9
 8 -165 l 17
 153.800163495 -149.043794816 215 -84.0004903185 215 55 c 10
 215 500 l 17xd0
 9 500 l 9
EndSplineSet
EndChar

StartChar: K
Encoding: 75 75 20
Width: 596
Flags: W
HStem: -37 25<202.253 393.747> 13 25<202.253 393.747> 63 25<202.253 393.747> 113 25<202.253 393.747> 163 25<202.253 393.747> 213 25<202.253 393.747> 263 25<200.724 395.276> 645 5<255.98 340.02>
VStem: 30 5<141 410 435 493.553> 167 37<356 434 470 586> 561 5<140 493.553>
LayerCount: 2
Fore
SplineSet
561 469 m 1
 566 469 l 1
 566 160 l 1
 561 140 l 1
 561 469 l 1
35 470 m 1
 35 141 l 1
 30 161 l 1
 30 470 l 1
 35 470 l 1
167 586 m 1
 204 586 l 1
 204 470 l 1
 371 586 l 1
 424 586 l 1
 268 479 l 1
 441 356 l 1
 390 356 l 1
 241 460 l 1
 204 434 l 1
 204 356 l 1
 167 356 l 1
 167 586 l 1
30 435 m 1
 30 320 141 238 298 238 c 0
 455 238 566 320 566 435 c 1
 566 410 l 2
 566 295 455 213 298 213 c 0
 141 213 30 295 30 410 c 2
 30 435 l 1
30 385 m 1
 30 270 141 188 298 188 c 0
 455 188 566 270 566 385 c 1
 566 360 l 2
 566 245 455 163 298 163 c 0
 141 163 30 245 30 360 c 2
 30 385 l 1
30 335 m 1
 30 220 141 138 298 138 c 0
 455 138 566 220 566 335 c 1
 566 310 l 2
 566 195 455 113 298 113 c 0
 141 113 30 195 30 310 c 2
 30 335 l 1
30 285 m 1
 30 170 141 88 298 88 c 0
 455 88 566 170 566 285 c 1
 566 260 l 2
 566 145 455 63 298 63 c 0
 141 63 30 145 30 260 c 2
 30 285 l 1
30 235 m 1
 30 120 141 38 298 38 c 0
 455 38 566 120 566 235 c 1
 566 210 l 2
 566 95 455 13 298 13 c 0
 141 13 30 95 30 210 c 2
 30 235 l 1
30 185 m 1
 30 70 141 -12 298 -12 c 0
 455 -12 566 70 566 185 c 1
 566 160 l 2
 566 45 455 -37 298 -37 c 0
 141 -37 30 45 30 160 c 2
 30 185 l 1
566 473 m 2
 566 460 l 2
 566 345 455 263 298 263 c 0
 141 263 30 345 30 460 c 2
 30 473 l 2
 30 575 144 650 298 650 c 0
 452 650 566 575 566 473 c 2
35 470 m 0
 35 365 147 288 298 288 c 0
 449 288 561 365 561 470 c 0
 561 573 451 645 298 645 c 0
 145 645 35 573 35 470 c 0
EndSplineSet
EndChar

StartChar: k
Encoding: 107 107 21
Width: 596
Flags: W
HStem: -37 25<202.253 393.747> 13 25<202.253 393.747> 63 25<202.253 393.747> 113 25<202.253 393.747> 163 25<202.253 393.747> 213 25<202.253 393.747> 263 25<200.724 395.276> 645 5<255.98 340.02>
VStem: 30 5<141 410 435 493.553> 206 37<356 406 442 586> 561 5<140 493.553>
LayerCount: 2
Fore
SplineSet
561 469 m 1
 566 469 l 1
 566 160 l 1
 561 140 l 1
 561 469 l 1
35 470 m 1
 35 141 l 1
 30 161 l 1
 30 470 l 1
 35 470 l 1
30 435 m 1
 30 320 141 238 298 238 c 0
 455 238 566 320 566 435 c 1
 566 410 l 2
 566 295 455 213 298 213 c 0
 141 213 30 295 30 410 c 2
 30 435 l 1
30 385 m 1
 30 270 141 188 298 188 c 0
 455 188 566 270 566 385 c 1
 566 360 l 2
 566 245 455 163 298 163 c 0
 141 163 30 245 30 360 c 2
 30 385 l 1
30 335 m 1
 30 220 141 138 298 138 c 0
 455 138 566 220 566 335 c 1
 566 310 l 2
 566 195 455 113 298 113 c 0
 141 113 30 195 30 310 c 2
 30 335 l 1
30 285 m 1
 30 170 141 88 298 88 c 0
 455 88 566 170 566 285 c 1
 566 260 l 2
 566 145 455 63 298 63 c 0
 141 63 30 145 30 260 c 2
 30 285 l 1
30 235 m 1
 30 120 141 38 298 38 c 0
 455 38 566 120 566 235 c 1
 566 210 l 2
 566 95 455 13 298 13 c 0
 141 13 30 95 30 210 c 2
 30 235 l 1
30 185 m 1
 30 70 141 -12 298 -12 c 0
 455 -12 566 70 566 185 c 1
 566 160 l 2
 566 45 455 -37 298 -37 c 0
 141 -37 30 45 30 160 c 2
 30 185 l 1
566 473 m 2
 566 460 l 2
 566 345 455 263 298 263 c 0
 141 263 30 345 30 460 c 2
 30 473 l 2
 30 575 144 650 298 650 c 0
 452 650 566 575 566 473 c 2
35 470 m 0
 35 365 147 288 298 288 c 0
 449 288 561 365 561 470 c 0
 561 573 451 645 298 645 c 0
 145 645 35 573 35 470 c 0
206 586 m 1
 243 586 l 1
 243 442 l 1
 353 533 l 1
 404 533 l 1
 303 452 l 1
 420 356 l 1
 369 356 l 1
 276 434 l 1
 243 406 l 1
 243 356 l 1
 206 356 l 1
 206 586 l 1
EndSplineSet
EndChar

StartChar: L
Encoding: 76 76 22
Width: 485
Flags: W
HStem: -116 38<429.88 502.182> 97 50<207.183 286.704> 329 29<149.831 269.644> 623 36<122.945 242.558>
VStem: 28 27<438.173 551.64> 302 62<389.192 562.781> 526 18<-42.5441 -26.6667>
LayerCount: 2
Fore
SplineSet
269.25 147 m 0
 393 147 372 -78 468.849846431 -78 c 0
 493.096774194 -78 510.516129032 -63.8974358974 526 -23 c 1
 544 -29 l 1
 524.380952381 -89.4166666667 492.99047619 -116 444.176091389 -116 c 0
 306 -116 347 97 241.766412056 97 c 0
 205 97 167 71 97 -8 c 1
 30 63 l 1
 239.771217712 258.714622642 302 354.113207547 302 467.270356922 c 0
 302 573.093959732 247.575757576 623 179.024261645 623 c 0
 103.846153846 623 55 562.979166667 55 491.363602621 c 0
 55 419.470247984 119.821290606 358 222.5625 358 c 0
 345.209372533 358 415.618624309 422.448669202 443 584 c 5
 499 574 l 1
 459.33161446 398.490909091 376.216901899 329 243.805664062 329 c 0
 114.027232178 329 28 398.753386776 28 493.256510068 c 0
 28 581 100 659 200.805322002 659 c 0
 305 659 364 575.666666667 364 462.965652197 c 0
 364 348.37037037 303 253.953703704 95 47 c 1
 107 35 l 1
 191 122 228 147 269.25 147 c 0
EndSplineSet
EndChar

StartChar: l
Encoding: 108 108 23
Width: 324
Flags: W
HStem: -9 34<125.946 217.939> 616 33<163.702 218.713>
VStem: 233 61<431.866 607.267>
LayerCount: 2
Fore
SplineSet
89 218.586914062 m 0
 89 431.285752522 135.358418955 616 188.740234375 616 c 0
 217.584331752 616 233 588.245198505 233 536.313476562 c 4
 233 424.283582371 170.385110683 298.691938477 -73 54 c 1
 -59 37 l 1
 208.152835545 272.995778329 294 418.005032184 294 532.1796875 c 4
 294 602.023815327 257.833607975 649 204.061465235 649 c 0
 109.729400878 649 31 457.28518005 31 227.576144646 c 0
 31 68.9426359165 70.4906718717 -9 150.864446346 -9 c 0
 198.633883623 -9 249.035067738 17.7529636733 311 76 c 1
 295 96 l 1
 241 46 197.070730168 25 164.2890625 25 c 0
 113.442747776 25 89 87.8483866846 89 218.586914062 c 0
EndSplineSet
EndChar

StartChar: M
Encoding: 77 77 24
Width: 750
Flags: W
HStem: 0 21G<20 234 272 484 523 730> 630 20G<20 276.181 515.833 730>
VStem: 20 214<0 248.089> 272 212<0 239.7> 523 207<0 276.356>
LayerCount: 2
Fore
SplineSet
534 650 m 1
 730 650 l 1
 730 0 l 1
 523 0 l 1
 523 215.569335938 490.9375 388.966796875 425 530 c 1
 534 650 l 1
118 493.896484375 m 1
 94 469 l 1
 208.588867188 343.131835938 234 218.591796875 234 0 c 1
 20 0 l 1
 20 650 l 1
 184 650 l 2
 368.362304688 650 484 399.451171875 484 0 c 1
 272 0 l 1
 272 194.920898438 244.91796875 365.921875 118 493.896484375 c 1
EndSplineSet
EndChar

StartChar: m
Encoding: 109 109 25
Width: 696
Flags: W
HStem: 0 21G<20 216 250 446 480 676>
VStem: 20 196<0 164.385> 250 196<0 170.429> 480 196<0 184.385>
CounterMasks: 1 70
LayerCount: 2
Fore
SplineSet
250 0 m 1
 250 175.219726562 195.328125 303.095703125 99 387.896484375 c 1
 78.1484375 366.887695312 l 1
 167.01171875 275.734375 216 150.750976562 216 0 c 1
 20 0 l 1
 20 500 l 1
 126 500 l 2
 195.857421875 500 257.454101562 463.189453125 309 394.306640625 c 1
 309 500 l 1
 396 500 l 2
 588.071289062 500 676 307.270507812 676 0 c 1
 480 0 l 1
 480 175.219726562 436.189453125 303.095703125 359 387.896484375 c 1
 338.1484375 366.887695312 l 1
 407.672851562 275.734375 446 150.750976562 446 0 c 1
 250 0 l 1
EndSplineSet
EndChar

StartChar: N
Encoding: 78 78 26
Width: 834
Flags: W
HStem: 0 21G<30 547 570.826 794> 638 12G<141.537 314.869 336 804>
VStem: 125 50<289.297 341.083> 662 50<312.3 356.029>
LayerCount: 2
Fore
SplineSet
30 355 m 1
 30 566.872317311 79.8718927577 658 203.201171875 658 c 0
 426.537488602 658 381.493703177 313.016945481 662 312.299804688 c 1
 662 356.029296875 l 1
 460.307269829 359.073180641 462.339648599 584.083863418 336 650 c 1
 804 650 l 1
 804 467.176255469 783.104673574 382.110949395 712 359.602539062 c 1
 712 310.6484375 l 1
 737.099952907 310.225205006 764.354410435 310 794 310 c 1
 794 0 l 1
 788 0 l 2
 353.652993109 0 432.891200269 291.759890433 175 341.083007812 c 1
 175 293.169921875 l 1
 333.762516533 271.702742988 342.558470217 80.0323855825 547 0 c 1
 30 0 l 1
 30 196.104636606 54.4252107534 278.251168627 125 292.833984375 c 1
 125 349.499128464 l 1
 100.459931086 353.071625638 73.2916771745 355 43 355 c 2
 30 355 l 1
EndSplineSet
EndChar

StartChar: n
Encoding: 110 110 27
Width: 815
Flags: W
HStem: 0 64<265 319.469> 0 53<726.686 785> 221 286<162.286 292.885> 324 184<490.5 691.5>
VStem: 30 346<249.568 378.006> 513 272<248.362 389.253>
LayerCount: 2
Fore
SplineSet
296 221 m 1x6c
 30 221 l 1
 33.3636363636 414 92.7878787879 507 215 507 c 0
 314.340425532 507 376 448 376 352 c 0
 376 286 350 219 265 64 c 1
 312 64 l 1xac
 473 435 527 508 644 508 c 0
 739 508 785 461 785 362 c 0
 785 256.889684675 725 146.08090356 725 89 c 0
 725 62.5294117647 737 53 785 53 c 1
 785 0 l 1
 411 0 l 1
 411 124 513 265 513 310 c 0
 513 319 510 324 500 324 c 0x5c
 481 324 468 305 340 0 c 1
 30 0 l 1
 30 230 217.14159292 86 296 221 c 1x6c
EndSplineSet
EndChar

StartChar: O
Encoding: 79 79 28
Width: 598
Flags: W
HStem: -10 213<213.701 418.776> 552 109<143.803 371.922>
VStem: 30 56<197.932 465.326> 520 48<184.53 400.666>
LayerCount: 2
Fore
SplineSet
327.119520597 661 m 4
 416.7246772 661 480 607.353628472 480 531.384177679 c 4
 480 470.060048797 438.703928879 426 381.226789001 426 c 4
 284.773222146 426 275.672636209 552 179.219069354 552 c 4
 120.805587358 552 86 504.872433247 86 425.779233536 c 4
 86 291.953107159 180.099426349 203 321.66796875 203 c 4
 443.38584495 203 520 269.277524836 520 374.573466006 c 4
 520 416.462494527 506.858947711 455.368726417 480 493 c 5
 489 499 l 5
 541.136801238 438.516505869 568 361.051615638 568 271.189217582 c 4
 568 97.870445982 468.07061709 -10 307.51099638 -10 c 4
 139.707725505 -10 30 107.823473135 30 288.040172432 c 4
 30 489.282009401 166.799631685 661 327.119520597 661 c 4
EndSplineSet
EndChar

StartChar: o
Encoding: 111 111 29
Width: 453
Flags: W
HStem: -10 163<173.474 309.671> 340 47.9114<415.625 503.352> 433 77<114.946 287.368>
VStem: 30 56<155.402 342.732> 380 12<416.064 424.333> 401 20<239.566 341.328>
LayerCount: 2
Fore
SplineSet
251.941546736 510 m 0
 322.793852468 510 370 465.474864397 370 398.646523485 c 0
 370 340.976559118 334.87563793 295 290.817954016 295 c 0
 214.282262305 295 221.320607699 433 144.784915988 433 c 0
 98.9373589004 433 86 399.412815343 86 338.698715979 c 0
 86 227.688072158 155.983237165 153 260.000973731 153 c 0
 348.386883148 153 401 206.92452293 401 297.513491693 c 0
 401 332.772768298 393.029525739 380.02117355 380 422 c 1
 392 426 l 5
 404.442528592 400.372521843 428.196209845 387.911422668 464.605467033 387.911422668 c 0
 499.488980563 387.911422668 529.661827085 403.922042233 559 438 c 1
 567 432 l 1
 506.639841823 355.723340258 485.098448112 340 440.957556798 340 c 0
 428.777646596 340 420.133261263 340.666039982 415 342 c 1
 419.565405999 301.174039146 421 280.97064889 421 257.501987705 c 0
 421 94.7675909153 344.004546738 -10 224.408319196 -10 c 0
 109.768358805 -10 30 86.2435041606 30 224.560898052 c 0
 30 380.163442665 130.953675096 510 251.941546736 510 c 0
EndSplineSet
EndChar

StartChar: P
Encoding: 80 80 30
Width: 610
Flags: HMW
LayerCount: 2
Fore
SplineSet
471 560 m 1
 406.656989504 511.557971341 377.953833908 464.710002653 357 368 c 6
 318 188 l 6
 293.637881593 75.5594535053 241.050028522 20 158.985489265 20 c 0
 73.4250474504 20 12 80.393928813 12 164.518100412 c 0
 12 262.793026714 95.828299422 343 198.540315725 343 c 0
 249.354731406 343 285 323.368834788 285 295.383460326 c 0
 285 272.678328252 261.539718948 256 229.601938871 256 c 0
 168.305399211 256 122 317.412048272 122 398.705938763 c 0
 122 528.406401093 241.168988345 626 399.542826966 626 c 0
 537.320182216 626 630 553.538540776 630 445.817696603 c 0
 630 351.794960787 560.007114268 270 479.55078125 270 c 0
 455.693024868 270 435.980669149 277.248257695 417 293 c 1
 414 290 l 1
 442.763429799 261.487771937 469.505179602 249 501.798828125 249 c 0
 581.583640899 249 638 320.905083961 638 422.594270443 c 0
 638 557.591233203 532.025313573 654 383.6336136 654 c 0
 230.553774021 654 116 549.06714864 116 408.843885023 c 0
 116 317.465490767 164.151187794 251 230.350627104 251 c 0
 267.299944639 251 292 271.712957032 292 302.697892704 c 0
 292 342.513185799 257.218759325 368 202.883789062 368 c 0
 96.4308756137 368 8 275.392708843 8 163.912234609 c 0
 8 68.0867533441 76.6613678129 -2 170.538003569 -2 c 0
 261.399159697 -2 325.079496056 63.6564541711 349 182 c 6
 387 370 l 6
 407.435794281 471.103403284 429.385524203 518.206169114 474 557 c 1
 471 560 l 1
EndSplineSet
EndChar

StartChar: p
Encoding: 112 112 31
Width: 514
Flags: HW
LayerCount: 2
Fore
SplineSet
175 556 m 1
 129 324 54 157 -44 73 c 1
 -40 69 l 1
 34 133 91 231 141 381 c 1
 39 -200 l 1
 72 -200 l 1
 192 556 l 1
 175 556 l 1
195 11 m 1
 179 5 159 1 150 1 c 0
 144 1 140 2 140 5 c 0
 140 10 155 14 172 14 c 0
 180 14 185 13 195 11 c 1
183 23 m 0
 158 23 138 15 138 6 c 0
 138 1 144 -2 154 -2 c 0
 164 -2 180 1 205 8 c 1
 236 -4 263 -9 291 -9 c 0
 350 -9 405 14 474 69 c 1
 470 73 l 1
 416 33 359 15 292 15 c 0
 278 15 265 16 233 19 c 1
 367 78 475 233 475 369 c 0
 475 449 438 503 383 503 c 0
 293 503 211 357 98 0 c 1
 103 -2 l 1
 214 343 290 482 366 482 c 0
 411 482 440 434 440 361 c 0
 440 226 342 75 219 20 c 1
 203 22 194 23 183 23 c 0
EndSplineSet
EndChar

StartChar: Q
Encoding: 81 81 32
Width: 714
Flags: HW
LayerCount: 2
Fore
SplineSet
50 295 m 0
 50 489.442519205 210.776546209 661 393 661 c 0
 547.746705379 661 662 539.526236946 662 375 c 0
 662 180.557480795 501.223453791 9 319 9 c 0
 164.253294621 9 50 130.473763054 50 295 c 0
289 574 m 0
 168.526116854 574 84 500.60659122 84 396 c 0
 84 245.294813334 252.703139068 96 423 96 c 0
 543.473883146 96 628 169.39340878 628 274 c 0
 628 424.705186666 459.296860932 574 289 574 c 0
112.694335938 -90.244140625 m 1
 183.318407733 -50.5485435096 222.520168287 -38 274 -38 c 0
 378 -38 415 -94 519 -94 c 0
 600.235456395 -94 650.037519232 -57.8095177435 665 8 c 1
 670 8 l 1
 640.736248555 -142.596054226 586.009191666 -210 493 -210 c 0
 385.19047619 -210 338.542124542 -98 210 -98 c 0
 161.230502161 -98 104.285591624 -115.838164746 44 -150 c 1
 43 -147 l 1
 253 43 l 1
 263 29 l 1
 112.694335938 -90.244140625 l 1
EndSplineSet
EndChar

StartChar: q
Encoding: 113 113 33
Width: 598
Flags: HW
LayerCount: 2
Fore
SplineSet
528 -180 m 1
 591 -196 l 1
 591 -200 l 1
 300 -200 l 1
 300 -196 l 1
 420 -180 l 1
 420 95 l 1
 367.967208797 27.9577497962 295.954705876 -11 224.061442216 -11 c 0
 115.848524991 -11 40 77.1759912861 40 202.976476494 c 0
 40 369.585780549 172.548340705 511 328.712175461 511 c 0
 428 511 412 454 528 500 c 1
 528 -180 l 1
420 107 m 1
 420 288 l 2
 420 387.813875447 352.190841731 454 249.929303936 454 c 0
 149.124845275 454 84 390.177127065 84 291.387945621 c 0
 84 168.910467459 187.578916897 63 307.360132453 63 c 0
 353.623500323 63 395.595831394 79.3954611039 420 107 c 1
EndSplineSet
EndChar

StartChar: R
Encoding: 82 82 34
Width: 507
Flags: HW
LayerCount: 2
Fore
SplineSet
346 331 m 1
 346 507 l 1
 313 540 l 1
 40 540 l 1
 40 650 l 1
 373 650 l 1
 468 557 l 1
 468 415 l 1
 383 331 l 1
 346 331 l 1
40 510 m 1
 162 510 l 1
 162 0 l 1
 40 0 l 1
 40 510 l 1
192 301 m 1
 383 301 l 1
 497 36 l 1
 497 0 l 1
 387 0 l 1
 302 191 l 1
 192 191 l 1
 192 301 l 1
EndSplineSet
EndChar

StartChar: r
Encoding: 114 114 35
Width: 352
Flags: HW
LayerCount: 2
Fore
SplineSet
352 390 m 1
 192 390 l 1
 192 430 l 1
 286 500 l 1
 322 500 l 1
 352 390 l 1
40 500 m 1
 162 500 l 1
 162 0 l 1
 40 0 l 1
 40 500 l 1
EndSplineSet
EndChar

StartChar: S
Encoding: 83 83 36
Width: 563
Flags: HW
LayerCount: 2
Fore
SplineSet
506 650 m 9
 479 402 l 17
 425.859381067 531.865671642 322.375017883 633 244.215766364 633 c 0
 215 633 203 620 203 593.741261488 c 0
 203 455.000106361 528 383.000161558 528 184.694335938 c 0
 528 67.0001259471 413.587347591 -12 209.066165208 -12 c 0
 152.951379658 -12 81.0448191891 -7 25 0 c 13
 95 254 l 17
 145.009892202 127.076923077 255.031655048 29 343.26171875 29 c 0
 374.000004322 29 388 40.0000650765 388 64.0810546875 c 0
 388 185.000147932 45 294.0000942 45 485.091671931 c 0
 45 594 155.918165287 660 341.396484375 660 c 0
 382.27474663 660 433.011001609 657 506 650 c 9
EndSplineSet
EndChar

StartChar: s
Encoding: 115 115 37
Width: 467
Flags: HW
LayerCount: 2
Fore
SplineSet
-54 0 m 1
 67.2277226913 93.3167145012 106.423280423 155 325 551 c 1
 347 551 l 1
 181.125203574 261.184673045 104.576491998 115.742121051 57 0 c 1
 -54 0 l 1
311 492 m 1
 232.391302214 492 193 474.307311414 193 437.400390625 c 0
 193 340.000031208 432 328.000029369 432 136.382638926 c 0
 432 43.1575387032 365.961042097 -12 255.690066656 -12 c 0
 229.047811952 -12 178.600807013 -6.73286803914 141 0 c 1
 191 134 l 1
 222.275053628 81.968026911 291.902966579 39 344.223125351 39 c 0
 369.424812167 39 383 47.5738028418 383 61.9626240733 c 0
 383 134.500104697 78 205.500207175 78 372.783203125 c 0
 78 461.070966941 174.099389083 510 315 510 c 1
 311 492 l 1
EndSplineSet
EndChar

StartChar: T
Encoding: 84 84 38
Width: 644
Flags: HW
LayerCount: 2
Fore
SplineSet
263 465 m 1
 260 471 l 1
 165.549715699 413.726900948 113 325.518126769 113 224.249096941 c 0
 113 92.3597363766 222.132135461 -18 379.075195312 -18 c 0
 526.268456619 -18 619 86.0183100825 619 251.1271149 c 0
 619 296.598164392 611.644282355 326.775753957 591 366 c 1
 583 362 l 1
 597.04038448 332.916269352 603 308.920980537 603 281.473701832 c 0
 603 198.996131129 549.186482635 154 450.546709126 154 c 0
 316.059079579 154 223 237.644178176 223 358.525529024 c 0
 223 402.529764066 235.33187446 435.355509297 263 465 c 1
400 415 m 1
 316.49488436 394.956647149 266 357.752659903 266 316.270507812 c 0
 266 237 412 221.303120685 412 179.968635067 c 0
 412 165.974213045 405.803636256 157.309021229 392 152 c 1
 402 152 l 1
 487.462366867 179.176334805 538 219.956366597 538 261.741671303 c 0
 538 343 392 352.54152506 392 392.583984375 c 0
 392 403.634974684 395.734731293 408.867336872 408 415 c 1
 400 415 l 1
141 278 m 1
 143 283 l 1
 88.5057128075 315.29295758 61 353.390044259 61 396.57499184 c 0
 61 448.052055391 100.080900955 474 177.611898202 474 c 0
 283.561852968 474 345.561763983 407 451.51171875 407 c 0
 573.177755422 407 644 466.181782204 644 567.850585938 c 0
 644 627.970716195 620.643193501 664 581.668945312 664 c 0
 565.691771999 664 548.891782433 658.845657944 523 646 c 1
 527 639 l 1
 545.383535256 649.04701258 564.988353506 655 579.692382812 655 c 0
 601.982983372 655 615 643.028161059 615 622.52734375 c 0
 615 600.801127802 590.8890852 588 549.967773438 588 c 0
 428.219984746 588 354.96971882 658 233.221930128 658 c 0
 103.723935747 658 25 581.704652007 25 456.201595638 c 0
 25 369.18791724 62.8307569626 311.071527111 141 278 c 1
EndSplineSet
EndChar

StartChar: t
Encoding: 116 116 39
Width: 352
Flags: HW
LayerCount: 2
Fore
SplineSet
20 447 m 1
 20 441 l 1
 60 441 l 1
 60 135 l 2
 60 103.104622428 47.1450021885 88 20 88 c 1
 20 83 l 1
 74.8431953377 56.4082958491 117.009563639 26.4346123581 186 -35 c 5
 221.20553574 11.8233406671 267.255277233 57.5576729718 332 110 c 1
 332 119 l 1
 290.37166454 91.089192225 248 101.177683782 248 139 c 2
 248 441 l 1
 332 441 l 1
 332 500 l 1
 226 500 l 1
 240.769230769 555.531914894 250.923076923 607.361702128 262 674 c 1
 256 676 l 1
 202.613552851 563.034540807 133.557572809 496.02683136 20 447 c 1
EndSplineSet
EndChar

StartChar: U
Encoding: 85 85 40
Width: 664
Flags: HW
LayerCount: 2
Fore
SplineSet
526 539 m 2
 512 553 l 2
 600 640 l 1
 614 626 l 1
 526 539 l 2
522 539 m 2
 434 626 l 1
 448 640 l 1
 536 553 l 2
 522 539 l 2
142 539 m 2
 128 553 l 2
 216 640 l 1
 230 626 l 1
 142 539 l 2
138 539 m 2
 50 626 l 1
 64 640 l 1
 152 553 l 2
 138 539 l 2
332 95 m 0
 443.172365949 95 514 173.048780488 514 295 c 2
 514 560 l 1
 534 560 l 1
 534 295 l 2
 534 162.022222222 454.287195967 75 332 75 c 0
 209.520619558 75 130 161.044444444 130 295 c 2
 130 560 l 1
 150 560 l 1
 150 295 l 2
 150 172.073170732 220.62732001 95 332 95 c 0
332 180 m 0
 392.247479839 180 424 220 424 295 c 2
 424 650 l 1
 624 650 l 1
 624 295 l 2
 624 115 503.655303434 -10 332 -10 c 0
 159.241368664 -10 40 115 40 295 c 2
 40 650 l 1
 240 650 l 1
 240 295 l 2
 240 219 271.495664492 180 332 180 c 0
332 10 m 0
 492.600961538 10 604 126 604 295 c 2
 604 631 l 1
 444 631 l 1
 444 295 l 2
 444 209 403.578678097 160 332 160 c 0
 260.182995495 160 220 208 220 295 c 2
 220 631 l 1
 60 631 l 1
 60 295 l 2
 60 126 170.295145295 10 332 10 c 0
EndSplineSet
EndChar

StartChar: u
Encoding: 117 117 41
Width: 594
Flags: HW
LayerCount: 2
Fore
SplineSet
452 389 m 1
 364 476 l 1
 378 490 l 1
 466 403 l 1
 452 389 l 1
456 389 m 1
 442 403 l 1
 530 490 l 1
 544 476 l 1
 456 389 l 1
534 80 m 1
 534 481 l 1
 374 481 l 1
 374 80 l 1
 354 80 l 1
 354 500 l 1
 554 500 l 1
 554 80 l 1
 534 80 l 1
444 3 m 1
 444 410 l 1
 464 410 l 1
 464 3 l 1
 444 3 l 1
454 8.86328125 m 5
 538 92 l 5
 554 80 l 5
 454 -19 l 5
 354 80 l 5
 370 92 l 5
 454 8.86328125 l 5
142 389 m 1
 128 403 l 1
 216 490 l 1
 230 476 l 1
 142 389 l 1
138 389 m 1
 50 476 l 1
 64 490 l 1
 152 403 l 1
 138 389 l 1
249.416096 95 m 0
 312.579858735 95 354 154.407049768 354 245 c 1
 363 245 l 1
 363 142.264512709 316.844657877 75 246.349959065 75 c 0
 175.585514376 75 130 129.851519192 130 215 c 2
 130 410 l 1
 150 410 l 1
 150 215 l 2
 150 140.604386778 187.781750783 95 249.416096 95 c 0
368 245 m 1
 368 92.9927602224 304.33704254 -10 210.376744568 -10 c 0
 110.846855242 -10 40 71.085812546 40 185 c 2
 40 500 l 1
 240 500 l 1
 240 245 l 2
 240 202.080784985 259.138923894 180 296.339937821 180 c 0
 333.963218823 180 354 202.587398058 354 245 c 1
 364 245 l 1
 364 190.824414867 339.450764928 160 296.304149483 160 c 0
 247.198675901 160 220 190.298318863 220 245 c 2
 220 481 l 1
 60 481 l 1
 60 185 l 2
 60 82.4207013442 122.227773173 10 210.369439997 10 c 0
 296.512949069 10 354 104.056981804 354 245 c 1
 368 245 l 1
EndSplineSet
EndChar

StartChar: V
Encoding: 86 86 43
Width: 686
Flags: HW
LayerCount: 2
Fore
SplineSet
606 585 m 0
 620 585 631 596 631 610 c 0
 631 624 620 635 606 635 c 0
 592 635 581 624 581 610 c 0
 581 596 592 585 606 585 c 0
343 15 m 0
 357 15 368 26 368 40 c 0
 368 54 357 65 343 65 c 0
 329 65 318 54 318 40 c 0
 318 26 329 15 343 15 c 0
80 585 m 0
 94 585 105 596 105 610 c 0
 105 624 94 635 80 635 c 0
 66 635 55 624 55 610 c 0
 55 596 66 585 80 585 c 0
299 110 m 0
 313 110 324 121 324 135 c 0
 324 149 313 160 299 160 c 0
 285 160 274 149 274 135 c 0
 274 121 285 110 299 110 c 0
256 205 m 0
 270 205 281 216 281 230 c 0
 281 244 270 255 256 255 c 0
 242 255 231 244 231 230 c 0
 231 216 242 205 256 205 c 0
211 300 m 0
 225 300 236 311 236 325 c 0
 236 339 225 350 211 350 c 0
 197 350 186 339 186 325 c 0
 186 311 197 300 211 300 c 0
168 395 m 0
 182 395 193 406 193 420 c 0
 193 434 182 445 168 445 c 0
 154 445 143 434 143 420 c 0
 143 406 154 395 168 395 c 0
124 490 m 0
 138 490 149 501 149 515 c 0
 149 529 138 540 124 540 c 0
 110 540 99 529 99 515 c 0
 99 501 110 490 124 490 c 0
387 110 m 0
 401 110 412 121 412 135 c 0
 412 149 401 160 387 160 c 0
 373 160 362 149 362 135 c 0
 362 121 373 110 387 110 c 0
430 205 m 0
 444 205 455 216 455 230 c 0
 455 244 444 255 430 255 c 0
 416 255 405 244 405 230 c 0
 405 216 416 205 430 205 c 0
474 300 m 0
 488 300 499 311 499 325 c 0
 499 339 488 350 474 350 c 0
 460 350 449 339 449 325 c 0
 449 311 460 300 474 300 c 0
518 395 m 0
 532 395 543 406 543 420 c 0
 543 434 532 445 518 445 c 0
 504 445 493 434 493 420 c 0
 493 406 504 395 518 395 c 0
562 490 m 0
 576 490 587 501 587 515 c 0
 587 529 576 540 562 540 c 0
 548 540 537 529 537 515 c 0
 537 501 548 490 562 490 c 0
606 660 m 0
 634 660 656 638 656 610 c 0
 656 603 654 596 651 589 c 2
 388 19 l 2
 386 15 374 -10 343 -10 c 0
 323 -10 306 2 298 19 c 2
 35 589 l 2
 32 596 30 603 30 610 c 0
 30 638 52 660 80 660 c 0
 100 660 117 648 125 631 c 2
 343 159 l 1
 561 631 l 2
 563 635 575 660 606 660 c 0
EndSplineSet
EndChar

StartChar: v
Encoding: 118 118 44
Width: 566
Flags: HW
LayerCount: 2
Fore
SplineSet
476 435 m 0
 490 435 501 446 501 460 c 0
 501 474 490 485 476 485 c 0
 462 485 451 474 451 460 c 0
 451 446 462 435 476 435 c 0
283 15 m 0
 297 15 308 26 308 40 c 0
 308 54 297 65 283 65 c 0
 269 65 258 54 258 40 c 0
 258 26 269 15 283 15 c 0
90 435 m 0
 104 435 115 446 115 460 c 0
 115 474 104 485 90 485 c 0
 76 485 65 474 65 460 c 0
 65 446 76 435 90 435 c 0
235 120 m 0
 249 120 260 131 260 145 c 0
 260 159 249 170 235 170 c 0
 221 170 210 159 210 145 c 0
 210 131 221 120 235 120 c 0
186 225 m 0
 200 225 211 236 211 250 c 0
 211 264 200 275 186 275 c 0
 172 275 161 264 161 250 c 0
 161 236 172 225 186 225 c 0
138 330 m 0
 152 330 163 341 163 355 c 0
 163 369 152 380 138 380 c 0
 124 380 113 369 113 355 c 0
 113 341 124 330 138 330 c 0
331 120 m 0
 345 120 356 131 356 145 c 0
 356 159 345 170 331 170 c 0
 317 170 306 159 306 145 c 0
 306 131 317 120 331 120 c 0
380 225 m 0
 394 225 405 236 405 250 c 0
 405 264 394 275 380 275 c 0
 366 275 355 264 355 250 c 0
 355 236 366 225 380 225 c 0
428 330 m 0
 442 330 453 341 453 355 c 0
 453 369 442 380 428 380 c 0
 414 380 403 369 403 355 c 0
 403 341 414 330 428 330 c 0
476 510 m 0
 504 510 526 488 526 460 c 0
 526 453 524 446 521 439 c 2
 328 19 l 2
 320 2 303 -10 283 -10 c 0
 263 -10 246 2 238 19 c 2
 45 439 l 2
 42 446 40 453 40 460 c 0
 40 488 62 510 90 510 c 0
 110 510 127 498 135 481 c 2
 283 160 l 1
 431 481 l 2
 439 498 456 510 476 510 c 0
EndSplineSet
EndChar

StartChar: W
Encoding: 87 87 45
Width: 956
Flags: HW
LayerCount: 2
Fore
SplineSet
482 680 m 5
 476 680 l 5
 283 206 l 5
 112 650 l 5
 10 650 l 5
 278 -30 l 5
 284 -30 l 5
 478.978515625 451.5 l 5
 668 -30 l 5
 674 -30 l 5
 946 650 l 5
 846 650 l 5
 669 206 l 5
 482 680 l 5
EndSplineSet
EndChar

StartChar: w
Encoding: 119 119 46
Width: 784
Flags: HW
LayerCount: 2
Fore
SplineSet
396 520 m 1
 390 520 l 1
 241 186 l 1
 112 500 l 1
 10 500 l 1
 236 -30 l 1
 242 -30 l 1
 392.978515625 311.5 l 5
 538 -30 l 1
 544 -30 l 1
 774 500 l 1
 674 500 l 1
 539 186 l 1
 396 520 l 1
EndSplineSet
EndChar

StartChar: X
Encoding: 88 88 47
Width: 678
Flags: HW
LayerCount: 2
Fore
SplineSet
14 0 m 1
 354 0 l 1
 234 195 l 1
 267.432617188 230.638671875 l 1
 644 -10 l 1
 644 270 l 1
 433 405 l 1
 664 650 l 1
 324 650 l 1
 445 454 l 1
 412.05078125 419.001953125 l 1
 34 660 l 1
 34 380 l 1
 246 245 l 1
 14 0 l 1
EndSplineSet
EndChar

StartChar: x
Encoding: 120 120 48
Width: 548
Flags: HW
LayerCount: 2
Fore
SplineSet
338.833502761 325.967389974 m 1
 34 510 l 1
 34 280 l 1
 193 184 l 1
 14 0 l 1
 284 0 l 1
 192 151 l 1
 212.481468208 172.22615317 l 1
 514 -10 l 1
 514 220 l 1
 357 315 l 1
 534 500 l 1
 264 500 l 1
 360 348 l 1
 338.833502761 325.967389974 l 1
EndSplineSet
EndChar

StartChar: Y
Encoding: 89 89 49
Width: 496
Flags: HW
LayerCount: 2
Fore
SplineSet
5 650 m 1
 247 650 l 1
 247 608 l 1
 189 608 l 1
 279 288 l 5
 381 608 l 1
 319 608 l 1
 319 650 l 1
 491 650 l 1
 491 608 l 1
 429 608 l 1
 301 214 l 1
 301 42 l 1
 359 42 l 1
 359 0 l 1
 117 0 l 1
 117 42 l 1
 175 42 l 1
 175 209 l 1
 56 608 l 1
 5 608 l 1
 5 650 l 1
EndSplineSet
EndChar

StartChar: y
Encoding: 121 121 50
Width: 456
Flags: HW
LayerCount: 2
Fore
SplineSet
5 500 m 1
 247 500 l 1
 247 458 l 1
 189 458 l 1
 260 159 l 1
 341 458 l 1
 279 458 l 1
 279 500 l 1
 451 500 l 1
 451 458 l 1
 389 458 l 1
 202 -200 l 1
 79 -200 l 5
 79 -78 l 5
 196 -78 l 1
 205 -43 l 1
 56 458 l 1
 5 458 l 1
 5 500 l 1
EndSplineSet
EndChar

StartChar: Z
Encoding: 90 90 51
Width: 694
Flags: HW
LayerCount: 2
Fore
SplineSet
30 650 m 1
 300 650 l 1
 150 412 l 1
 190 412 l 1
 340 650 l 1
 674 650 l 1
 674 622 l 1
 289 40 l 1
 325 40 l 1
 485 278 l 1
 664 278 l 1
 664 0 l 1
 384 0 l 1
 544 238 l 1
 504 238 l 1
 344 0 l 1
 20 0 l 1
 20 28 l 1
 407 610 l 1
 368 610 l 1
 211 372 l 1
 30 372 l 1
 30 650 l 1
EndSplineSet
EndChar

StartChar: z
Encoding: 122 122 52
Width: 626
Flags: HW
LayerCount: 2
Fore
SplineSet
407.125 250 m 1
 606 472 l 1
 606 500 l 1
 292 500 l 1
 130 312 l 1
 94 312 l 1
 252 500 l 1
 32 500 l 1
 32 272 l 1
 151 272 l 1
 320 460 l 1
 359 460 l 1
 20 78 l 1
 20 50 l 1
 219 50 l 1
 20 -172 l 1
 20 -200 l 1
 334 -200 l 1
 496 -12 l 1
 532 -12 l 1
 374 -200 l 1
 594 -200 l 1
 594 28 l 1
 475 28 l 1
 306 -160 l 1
 267 -160 l 1
 606 222 l 1
 606 250 l 1
 407.125 250 l 1
276 90 m 1
 238 90 l 1
 350.291992188 210 l 1
 388 210 l 1
 276 90 l 1
EndSplineSet
EndChar

StartChar: zero
Encoding: 48 48 53
Width: 596
Flags: HW
LayerCount: 2
Fore
SplineSet
48 40 m 17
 213.772964668 183.648089307 374.162693951 333.029202922 532 490 c 9
 566 454 l 17
 394.393381804 308.296576877 232.726715172 158.296576884 81 4 c 9
 48 40 l 17
79 250 m 0
 79 128.564136674 171.959933325 39 298 39 c 0
 424.040066675 39 517 128.564136674 517 250 c 0
 517 371.435863326 424.040066675 461 298 461 c 0
 171.959933325 461 79 371.435863326 79 250 c 0
42 250 m 0
 42 397.175046432 151.965845401 508 298 508 c 0
 444.034154599 508 554 397.175046432 554 250 c 0
 554 102.824953568 444.034154599 -8 298 -8 c 0
 151.965845401 -8 42 102.824953568 42 250 c 0
EndSplineSet
EndChar

StartChar: one
Encoding: 49 49 54
Width: 294
Flags: HW
LayerCount: 2
Fore
SplineSet
148 500 m 1
 244 500 l 1
 244 0 l 1
 138 0 l 1
 138 333 l 1
 20 333 l 1
 20 418 l 1
 28 418 l 2
 111.52734375 418 136 442.922851562 148 500 c 1
EndSplineSet
EndChar

StartChar: two
Encoding: 50 50 55
Width: 482
Flags: HW
LayerCount: 2
Fore
SplineSet
30 321 m 1
 69 441 151 507 260 507 c 0
 370 507 450 439 450 345 c 0
 450 261 386 200 217 123 c 1
 419 123 l 1
 442 183 l 1
 452 183 l 1
 452 1 l 1
 30 1 l 1
 30 12 l 1
 292 190 352 245 352 310 c 0
 352 363 305 394 223 394 c 0
 152 394 97 372 40 321 c 1
 30 321 l 1
EndSplineSet
EndChar

StartChar: three
Encoding: 51 51 56
Width: 426
Flags: HW
LayerCount: 2
Fore
SplineSet
30 456 m 1
 30 370 l 1
 92.9334565709 394.583347345 146.270858111 407 188.938476562 407 c 0
 252.422741825 407 290 379.425357911 290 332.83984375 c 0
 290 294.801904097 260.003987933 270 214 270 c 2
 93 270 l 1
 93 172 l 1
 213 172 l 2
 254.557373579 172 284 143.039631335 284 102.162949941 c 0
 284 74.850262621 271.11050113 47.9984006786 246 23 c 2
 22 -200 l 1
 168 -200 l 1
 316 -48 l 2
 371.529431793 9.03022724704 394 49.1431533229 394 91.2402811142 c 0
 394 150.96047973 347.492325856 207.992051623 289 220 c 1
 359.050791338 242.186245201 394 285.549657876 394 350.279296875 c 0
 394 442.194368195 317.83162189 506 208.107421875 506 c 0
 153.997207841 506 96.996524519 489.998229068 30 456 c 1
EndSplineSet
EndChar

StartChar: four
Encoding: 52 52 57
Width: 498
Flags: HW
LayerCount: 2
Fore
SplineSet
362 104 m 1
 137 104 l 1
 137 105 l 1
 92 150 l 1
 137 195 l 1
 362 195 l 1
 407 150 l 1
 362 105 l 1
 362 104 l 1
370 -160 m 1
 370 95 l 1
 371 95 l 1
 416 140 l 1
 461 95 l 1
 461 -160 l 1
 416 -205 l 1
 371 -160 l 1
 370 -160 l 1
371 205 m 1
 371 460 l 1
 372 460 l 1
 417 505 l 1
 462 460 l 1
 462 205 l 1
 417 160 l 1
 372 205 l 1
 371 205 l 1
36 205 m 1
 36 460 l 1
 37 460 l 1
 82 505 l 1
 127 460 l 1
 127 205 l 1
 82 160 l 1
 37 205 l 1
 36 205 l 1
EndSplineSet
EndChar

StartChar: five
Encoding: 53 53 58
Width: 532
Flags: HW
LayerCount: 2
Fore
SplineSet
487 383 m 1
 157 383 l 1
 157 217 l 1
 487 217 l 1
 487 97 l 1
 262 -201 l 1
 105 -201 l 1
 340 100 l 1
 45 100 l 1
 45 500 l 1
 487 500 l 1
 487 383 l 1
EndSplineSet
EndChar

StartChar: six
Encoding: 54 54 59
Width: 492
Flags: HW
LayerCount: 2
Fore
SplineSet
40 521 m 1
 241 392 l 1
 241 330 l 1
 149 330 l 1
 97 360 l 2
 60.5715618183 381.017007616 40 412.415707234 40 447 c 2
 40 521 l 1
166 650 m 2
 326 650 l 2
 403.659292368 650 452 605.112200056 452 533 c 1
 342 462 l 1
 342 490 l 2
 342 525.675763811 322.997088397 544 286 544 c 2
 206 544 l 2
 168.824435764 544 150 525.847865514 150 490 c 2
 150 462 l 1
 40 533 l 1
 40 605.112200056 88.3407076322 650 166 650 c 2
287 547 m 2
 324.365083326 547 345 527.076632177 345 491 c 2
 345 467.356445312 l 1
 448.904296875 534.385742188 l 1
 448.479997554 605.144844555 400.800360265 647 326 647 c 2
 166 647 l 2
 91.1996397352 647 43.5200024456 605.144844555 43.095703125 534.385742188 c 1
 147 467.356445312 l 1
 147 491 l 2
 147 527.23125093 167.474775823 547 205 547 c 2
 287 547 l 2
238 333 m 1
 238 390.536132812 l 1
 43 515.700195312 l 1
 43 447 l 2
 43 413.591124466 62.6869272658 383.397463205 97.986328125 362.66796875 c 2
 149.677734375 333 l 1
 238 333 l 1
326 0 m 2
 166 0 l 2
 88.3408203125 0 40 44.8876953125 40 117 c 1
 150 188 l 1
 150 160 l 2
 150 124.32421875 169.002929688 106 206 106 c 2
 286 106 l 2
 323.17578125 106 342 124.15234375 342 160 c 2
 342 188 l 1
 452 117 l 1
 452 44.8876953125 403.659179688 -0 326 0 c 2
452 521 m 1
 452 447 l 2
 452 412.415039062 431.427734375 381.016601562 395 360 c 2
 343 330 l 1
 251 330 l 1
 251 392 l 1
 452 521 l 1
452 129 m 1
 251 258 l 1
 251 320 l 1
 343 320 l 1
 395 290 l 2
 431.427734375 268.983398438 452 237.584960938 452 203 c 2
 452 129 l 1
40 129 m 1
 40 203 l 2
 40 237.584960938 60.572265625 268.983398438 97 290 c 2
 149 320 l 1
 241 320 l 1
 241 258 l 1
 40 129 l 1
EndSplineSet
EndChar

StartChar: seven
Encoding: 55 55 60
Width: 538
Flags: HWO
LayerCount: 2
Fore
SplineSet
34 493 m 2
 34 222 l 2
 34 208.946310292 42.7031017485 201 57 201 c 0
 115.960301672 201 384 241 451 241 c 0
 458.827785504 241 458.23444323 232.919782659 450 230 c 0
 191.889518414 141 87 42.2846592707 87 -63.228515625 c 0
 87 -145.526099617 151.617308269 -200 249.239257812 -200 c 0
 349.903183126 -200 419 -147.051014032 419 -69.912109375 c 0
 419 28 330 60.9894986663 330 120 c 0
 330 158 360.538979499 169.614974061 452 206 c 0
 493.997809439 222.70756982 504 230.855910571 504 257 c 2
 504 479 l 2
 504 492.465677255 492.243387291 500 471.231445312 500 c 0
 411.25 500 143.564453125 444 83.5830078125 444 c 0
 64.3167281697 444 56 449.125778155 56 461 c 2
 56 493 l 2
 56 506.5 34 506.5 34 493 c 2
EndSplineSet
EndChar
